HIERARCHY
ROOT SimulationBone
{
	OFFSET 0.000000 0.000000 0.000000
	CHANNELS 6 Xposition Yposition Zposition Zrotation Yrotation Xrotation 
	JOINT Hips
	{
		OFFSET 0.000000 0.000000 0.000000
		CHANNELS 6 Xposition Yposition Zposition Zrotation Yrotation Xrotation 
		JOINT RightUpLeg
		{
			OFFSET 0.103459 1.857829 10.548508
			CHANNELS 3 Zrotation Yrotation Xrotation
			JOINT RightLeg
			{
				OFFSET 43.500000 -0.000031 -0.000004
				CHANNELS 3 Zrotation Yrotation Xrotation
				JOINT RightFoot
				{
					OFFSET 42.372200 0.000019 0.000005
					CHANNELS 3 Zrotation Yrotation Xrotation
					JOINT RightToe
					{
						OFFSET 17.299999 -0.000000 -0.000005
						CHANNELS 3 Zrotation Yrotation Xrotation
						End Site
						{
							OFFSET 0.000000 0.000000 0.000000
						}
					}
				}
			}
		}
		JOINT LeftUpLeg
		{
			OFFSET 0.103458 1.857828 -10.548506
			CHANNELS 3 Zrotation Yrotation Xrotation
			JOINT LeftLeg
			{
				OFFSET 43.500042 -0.000023 0.000011
				CHANNELS 3 Zrotation Yrotation Xrotation
				JOINT LeftFoot
				{
					OFFSET 42.372261 -0.000008 0.000008
					CHANNELS 3 Zrotation Yrotation Xrotation
					JOINT LeftToe
					{
						OFFSET 17.299994 -0.000005 0.000010
						CHANNELS 3 Zrotation Yrotation Xrotation
						End Site
						{
							OFFSET 0.000000 0.000000 0.000000
						}
					}
				}
			}
		}
		JOINT Spine
		{
			OFFSET 6.901963 -2.603731 0.000002
			CHANNELS 3 Zrotation Yrotation Xrotation
			JOINT Spine1
			{
				OFFSET 12.588100 0.000001 -0.000005
				CHANNELS 3 Zrotation Yrotation Xrotation
				JOINT Spine2
				{
					OFFSET 12.343208 0.000002 0.000006
					CHANNELS 3 Zrotation Yrotation Xrotation
					JOINT Neck
					{
						OFFSET 25.832893 -0.000004 -0.000005
						CHANNELS 3 Zrotation Yrotation Xrotation
						JOINT Head
						{
							OFFSET 11.766604 0.000010 0.000000
							CHANNELS 3 Zrotation Yrotation Xrotation
							End Site
							{
								OFFSET 0.000000 0.000000 0.000000
							}
						}
					}
					JOINT RightShoulder
					{
						OFFSET 19.745903 -1.480368 6.000098
						CHANNELS 3 Zrotation Yrotation Xrotation
						JOINT RightArm
						{
							OFFSET 11.284134 -0.000007 -0.000016
							CHANNELS 3 Zrotation Yrotation Xrotation
							JOINT RightForeArm
							{
								OFFSET 33.000050 0.000005 0.000015
								CHANNELS 3 Zrotation Yrotation Xrotation
								JOINT RightHand
								{
									OFFSET 25.200003 0.000014 0.000010
									CHANNELS 3 Zrotation Yrotation Xrotation
									End Site
									{
										OFFSET 0.000000 0.000000 0.000000
									}
								}
							}
						}
					}
					JOINT LeftShoulder
					{
						OFFSET 19.746094 -1.480373 -6.000076
						CHANNELS 3 Zrotation Yrotation Xrotation
						JOINT LeftArm
						{
							OFFSET 11.284140 -0.000016 -0.000005
							CHANNELS 3 Zrotation Yrotation Xrotation
							JOINT LeftForeArm
							{
								OFFSET 33.000092 0.000015 0.000005
								CHANNELS 3 Zrotation Yrotation Xrotation
								JOINT LeftHand
								{
									OFFSET 25.199781 0.000140 0.000422
									CHANNELS 3 Zrotation Yrotation Xrotation
									End Site
									{
										OFFSET 0.000000 0.000000 0.000000
									}
								}
							}
						}
					}
				}
			}
		}
	}
}
MOTION
Frames: 10
Frame Time: 0.016667
80.364275 0.000000 -76.495612 0.000000 -41.796713 0.000000 -0.717378 90.766373 -1.988162 94.779009 -0.858671 178.389519 -179.909560 -14.024596 170.487969 -36.334502 -1.459579 -16.408549 70.287912 8.085271 -11.859208 21.454557 0.003109 0.000018 169.808557 6.976695 -161.523756 -26.517157 1.357422 7.612525 82.669180 -4.822837 2.506862 21.454550 -0.003100 -0.000002 9.445824 1.431122 -2.094626 8.828137 3.017736 -4.075304 8.510449 2.992958 -4.093432 4.798882 -10.875618 -9.202923 -20.098270 5.677468 -14.395698 111.158148 -76.425905 68.453244 -50.651289 46.860571 -52.918905 -96.564455 0.388864 2.613733 0.867686 -30.532123 9.095602 178.692324 75.993684 0.064265 -6.524730 -56.916613 -17.953556 -88.916809 1.794052 -2.382844 3.381539 21.310911 -5.576419 
80.289706 0.000000 -75.791094 0.000000 -42.363357 0.000000 -0.678708 90.860336 -2.039949 94.821237 -0.995206 178.870330 179.394112 -13.982750 170.964809 -37.490994 -1.428867 -17.325010 68.686117 8.724178 -11.564211 21.454560 0.003108 0.000015 170.312429 6.614751 -161.808566 -26.201066 1.382221 7.794441 82.974553 -4.975665 2.391449 21.454555 -0.003076 0.000001 9.430819 1.480873 -2.146991 8.795088 3.120518 -4.176687 8.477398 3.095128 -4.195436 4.702539 -10.388331 -9.108725 -20.018792 5.274677 -14.022997 113.195923 -76.518570 66.399264 -48.505244 49.323177 -50.125039 -95.758861 0.159949 2.592482 0.937266 -30.353203 8.601361 -179.917136 75.617283 1.478919 -4.424900 -56.542457 -19.775239 -88.684445 1.808768 -2.373679 3.489302 21.261777 -5.481477 
80.226478 0.000000 -75.126249 0.000000 -42.923879 0.000000 -0.624631 90.942421 -2.068050 94.885658 -1.118973 179.239372 178.733237 -13.938003 171.465424 -38.670624 -1.550925 -18.415431 67.262370 9.613563 -10.976931 21.454560 0.003108 0.000015 170.805532 6.247101 -162.283027 -25.909982 1.464940 8.016046 83.280823 -5.159709 2.260557 21.454555 -0.003075 0.000002 9.426307 1.524332 -2.174665 8.783897 3.209207 -4.228925 8.466199 3.183500 -4.248204 4.652406 -10.034430 -9.062791 -20.017645 5.013015 -13.790516 115.119529 -76.556198 64.463704 -46.227372 51.684211 -47.165167 -94.851307 -0.104194 2.571346 0.609400 -30.456540 9.088974 -178.436998 75.418207 2.990423 -2.689411 -56.254269 -21.256786 -88.534448 1.832586 -2.368649 3.523001 21.090892 -5.490109 
80.175231 0.000000 -74.498635 0.000000 -43.478289 0.000000 -0.563243 91.001384 -2.080668 94.968195 -1.199139 179.543139 178.068337 -13.919950 171.947716 -39.909356 -1.731685 -19.533811 66.081593 10.660296 -10.093692 21.454558 0.003109 0.000016 171.279895 5.859103 -162.845958 -25.667056 1.580223 8.250226 83.595818 -5.354095 2.118301 21.454552 -0.003084 0.000001 9.432231 1.569928 -2.188179 8.793920 3.301458 -4.252410 8.476207 3.275606 -4.272240 4.564707 -9.780830 -9.032461 -20.008168 4.833830 -13.632402 116.870666 -76.568599 62.702551 -43.811272 53.940736 -44.106988 -93.972153 -0.360846 2.550377 0.143238 -30.727144 9.948177 -176.938817 75.334086 4.523344 -1.366063 -56.013781 -22.344233 -88.446926 1.854571 -2.366244 3.544641 20.844531 -5.497559 
80.136604 0.000000 -73.905811 0.000000 -44.026605 0.000000 -0.502963 91.025978 -2.085667 95.065511 -1.204798 179.828279 177.359235 -13.958502 172.370410 -41.247231 -1.872513 -20.537827 65.210171 11.766390 -8.901815 21.454557 0.003109 0.000017 171.726542 5.434198 -163.396416 -25.495711 1.703176 8.469472 83.927233 -5.537954 1.968977 21.454551 -0.003092 0.000000 9.448513 1.626082 -2.198066 8.824426 3.414893 -4.267540 8.506687 3.388947 -4.288053 4.356307 -9.594242 -8.985992 -19.905067 4.677811 -13.483651 118.407800 -76.586503 61.155037 -41.262429 56.094043 -41.028396 -93.251902 -0.567383 2.532039 -0.198664 -31.057931 10.565597 -175.514620 75.305168 5.981785 -0.511793 -55.781658 -22.974346 -88.401990 1.863770 -2.364979 3.615364 20.568790 -5.399665 
80.111235 0.000000 -73.345336 0.000000 -44.568860 0.000000 -0.450718 91.010825 -2.088681 95.174494 -1.121724 -179.877232 176.582744 -14.067919 172.711938 -42.714994 -1.900774 -21.292749 64.717826 12.794460 -7.488739 21.454557 0.003108 0.000016 172.137278 4.965070 -163.865929 -25.408862 1.814489 8.652517 84.277896 -5.695337 1.816128 21.454552 -0.003090 -0.000000 9.473320 1.695991 -2.210657 8.871440 3.556319 -4.286752 8.553663 3.530254 -4.308125 4.007663 -9.436256 -8.904756 -19.675799 4.496263 -13.295802 119.707921 -76.631302 59.842717 -38.581671 58.145533 -37.962302 -92.770795 -0.698046 2.519315 -0.163762 -31.368953 10.464944 -174.255242 75.274663 7.271626 -0.155135 -55.518091 -23.112400 -88.380226 1.854432 -2.363597 3.788178 20.298436 -5.146669 
80.099764 0.000000 -72.814768 0.000000 -45.105094 0.000000 -0.406401 90.974007 -2.087549 95.289472 -1.002178 -179.620731 175.785819 -14.197997 173.025726 -44.290808 -1.862319 -21.678626 64.677622 13.465881 -6.369808 21.454558 0.003107 0.000016 172.510976 4.487897 -164.314940 -25.376279 1.915897 8.804250 84.631698 -5.829993 1.659602 21.454553 -0.003086 0.000000 9.497877 1.761947 -2.215527 8.918324 3.689264 -4.290779 8.600498 3.663172 -4.312961 3.752400 -9.249541 -8.820610 -19.495990 4.285295 -13.084145 120.771210 -76.685363 58.767374 -35.697655 60.074217 -34.713626 -92.407718 -0.794022 2.510073 0.415505 -31.644207 9.753335 -173.174295 75.187798 8.378314 -0.194801 -55.189494 -22.854259 -88.364123 1.841640 -2.361767 4.088433 20.024653 -4.903156 
80.102829 0.000000 -72.311665 0.000000 -45.635362 0.000000 -0.368254 90.934738 -2.079948 95.404976 -0.901142 -179.448330 175.021308 -14.295888 173.385973 -45.931916 -1.828779 -21.551580 65.146018 13.505811 -6.013185 21.454555 0.003108 0.000017 172.852437 4.045071 -164.808782 -25.364846 2.016374 8.932264 84.973319 -5.947900 1.498274 21.454551 -0.003090 0.000001 9.514999 1.806927 -2.201401 8.951660 3.778602 -4.258610 8.633778 3.752702 -4.281331 3.799178 -9.013785 -8.768587 -19.522928 4.069041 -12.886845 121.696735 -76.728230 57.831367 -32.532500 61.827367 -31.073884 -92.013300 -0.902130 2.500065 1.515742 -31.876882 8.743834 -172.274470 75.015759 9.299039 -0.515243 -54.790458 -22.296990 -88.334436 1.842587 -2.359469 4.500076 19.715618 -4.840859 
80.121070 0.000000 -71.833586 0.000000 -46.159726 0.000000 -0.335493 90.893288 -2.070384 95.525736 -0.819515 -179.325223 174.292412 -14.365092 173.881617 -47.574572 -1.873526 -20.667273 66.189436 12.803498 -6.245796 21.454555 0.003110 0.000018 173.180157 3.656100 -165.305591 -25.373430 2.133849 9.028218 85.309335 -6.043976 1.330904 21.454550 -0.003092 0.000001 9.530685 1.837611 -2.170238 8.983187 3.838018 -4.193489 8.665250 3.812511 -4.216567 4.004615 -8.871799 -8.750491 -19.633281 3.933196 -12.775232 122.993972 -76.765768 56.521089 -29.170811 63.302594 -27.116099 -91.526597 -1.025241 2.486815 2.446965 -32.086817 7.985400 -171.553683 74.833960 10.036697 -1.075768 -54.432706 -21.410041 -88.263084 1.862074 -2.357000 4.863677 19.286467 -4.946697 
80.155126 0.000000 -71.378090 0.000000 -46.678259 0.000000 -0.307306 90.845154 -2.062881 95.658822 -0.743430 -179.207755 173.582030 -14.413891 174.572269 -49.165144 -2.034255 -18.894485 67.809714 11.389876 -6.763686 21.454561 0.003110 0.000016 173.510442 3.323515 -165.747457 -25.409263 2.276118 9.081782 85.650307 -6.110643 1.160786 21.454553 -0.003085 0.000001 9.552813 1.865120 -2.126189 9.028187 3.890303 -4.102611 8.710197 3.865342 -4.126009 4.174750 -8.951930 -8.755581 -19.669074 3.944185 -12.796979 124.874327 -76.796337 54.623124 -25.759467 64.460774 -23.028451 -90.934410 -1.158587 2.469644 2.641487 -32.301523 7.911980 -170.998249 74.720681 10.605667 -1.859417 -54.218104 -20.156057 -88.137615 1.900448 -2.354859 5.042105 18.702869 -5.168389 
